<svg width="146" height="106" viewBox="0 0 146 106" fill="none" xmlns="http://www.w3.org/2000/svg">
<path opacity="0.5" fill-rule="evenodd" clip-rule="evenodd" d="M75.9153 103.075C73.6162 100.899 73.891 96.3613 75.9463 93.5353C78.0215 90.6814 81.5884 91.7614 83.773 93.8072C83.773 93.8072 84.6455 89.1472 85.1323 86.8645C85.6332 84.5141 86.3536 82.4356 87.4365 80.2721C89.5944 75.9627 93.4909 73.6404 98.2407 74.4666C101.581 75.0474 107.593 77.7167 112.802 89.6951C113.783 84.8018 119.696 83.109 123.404 85.7247C125.376 87.115 126.563 89.1828 127.942 91.0633C129.321 92.9432 130.484 94.9714 131.449 97.0996C132.025 98.3701 134.064 101.271 132.646 102.074C128.526 104.41 103.248 103.53 93.2297 103.409C83.9879 103.298 77.078 104.176 75.9153 103.075Z" fill="#FFC5EB"/>
<path fill-rule="evenodd" clip-rule="evenodd" d="M126.376 81.1457C126.007 89.1643 125.94 97.833 126.866 105.641C130.183 103.621 129.127 76.8495 129.066 69.8316C128.999 62.0849 130.683 47.7834 127.731 40.6023L126.376 81.1457Z" fill="#AA99F2"/>
<path fill-rule="evenodd" clip-rule="evenodd" d="M126.568 28.5725C119.851 22.7847 111.578 24.8045 110.145 28.7476C109.438 30.6927 110.573 35.2806 116.337 36.0026C112.357 37.4923 111.635 42.2221 115.048 44.238C118.916 46.5226 126.123 45.6882 128.02 42.272C130.281 45.4791 136.855 46.2409 140.164 43.4174C143.094 40.9174 143.311 36.3784 138.274 34.8979C140.57 35.2606 144.297 34.5215 145.405 32.9313C146.442 31.4432 146.032 28.369 144.881 26.9828C141.806 23.2798 133.753 23.0802 126.568 28.5725Z" fill="#556EF8"/>
<path fill-rule="evenodd" clip-rule="evenodd" d="M127.357 36.0656C127.958 32.4253 131.607 28.4448 136.106 29.6747C135.614 26.8719 129.671 23.8811 127.213 23.6602C122.706 23.255 119.711 25.8794 117.379 29.1094C117.379 29.1094 122.572 28.9396 127.357 36.0656Z" fill="#FFC5EB"/>
<path fill-rule="evenodd" clip-rule="evenodd" d="M122.551 27.3994C122.9 29.6486 125.901 26.9079 123.848 26.3259C123.142 26.1256 122.446 26.7237 122.551 27.3994Z" fill="#FA0000"/>
<path fill-rule="evenodd" clip-rule="evenodd" d="M126.328 23.9422C126.572 22.1164 128.637 22.9656 127.377 24.443C126.736 25.194 126.234 24.6377 126.328 23.9422Z" fill="#FA0000"/>
<path fill-rule="evenodd" clip-rule="evenodd" d="M128.41 29.1213C128.448 27.9214 131.118 28.189 130.279 29.4301C129.763 30.1942 128.38 30.0469 128.41 29.1213Z" fill="#FA0000"/>
<path fill-rule="evenodd" clip-rule="evenodd" d="M128.529 76.4099C129.081 71.897 124.62 63.1666 122.456 59.1047C121.33 56.9914 117.587 50.9506 114.482 51.9316C109.876 53.3869 113.012 62.5498 114.476 65.2737C116.663 69.3425 120.34 77.0921 128.076 78.9166C133.102 80.1016 140.882 68.7676 142.398 62.8872C143.753 57.6311 143.753 53.4777 140.347 53.0919C136.641 52.6723 132.289 59.964 131.377 62.3761C129.857 66.3975 128.382 72.1442 128.529 76.4099Z" fill="#AA99F2"/>
<path fill-rule="evenodd" clip-rule="evenodd" d="M120.528 105.887C121.219 101.836 123.514 88.0116 116.805 85.5981C110.036 83.1625 109.048 92.0312 111.059 96.3933C113.944 102.652 120.528 105.887 120.528 105.887Z" fill="#AA99F2"/>
<path fill-rule="evenodd" clip-rule="evenodd" d="M7.00665 95.9229C3.49155 97.1725 2.55579 101.498 2.42664 105.179C2.41058 105.631 2.18439 105.572 2.0768 105.123C0.950722 100.422 0.28053 96.632 2.41212 94.4382C1.76217 94.618 0.450168 95.1137 0.450168 95.1137C0.162597 94.1596 0.0158417 93.2761 0 92.3109C1.37185 91.6325 3.56724 90.6662 5.08298 89.8245" fill="#FA0000"/>
<path fill-rule="evenodd" clip-rule="evenodd" d="M48.9458 98.1432C49.14 102.194 52.7053 104.301 55.9121 105.388C56.306 105.521 56.1951 105.746 55.7722 105.744C51.3447 105.727 47.8366 105.461 46.4549 102.635C46.4461 103.371 46.5442 104.89 46.5442 104.89C45.6304 104.949 44.815 104.878 43.9613 104.645C43.7176 103.015 43.4333 100.438 43.083 98.6124" fill="#FA0000"/>
<path fill-rule="evenodd" clip-rule="evenodd" d="M51.7249 44.3069C48.4404 41.1036 42.2254 42.112 41.3594 42.5332C38.9719 43.6948 36.8086 49.9653 35.567 52.6106C34.3142 55.2803 30.9842 67.9758 24.0638 72.7938C18.0496 76.981 2.06054 82.3741 1.62049 86.4005C1.13006 90.8882 8.37851 97.1204 8.37851 97.1204C8.37851 97.1204 29.9265 87.7161 35.9404 80.4693C39.8777 75.7252 44.3684 67.6229 47.1988 62.1804C49.7999 65.8768 51.9823 73.6524 51.825 76.2868C51.427 82.9422 37.626 94.3594 38.6846 97.4708C39.6137 100.201 51.4534 99.7661 51.4534 99.7661C52.2219 98.3043 64.6189 87.6371 65.3565 75.6832C65.9166 66.6024 53.007 45.5574 51.7249 44.3069Z" fill="#0042FF"/>
<path fill-rule="evenodd" clip-rule="evenodd" d="M50.8828 18.6346C52.8888 19.0616 55.8606 18.9194 59.1296 25.3229C60.662 28.3244 61.5497 32.0203 62.0013 35.1367C63.056 32.308 62.5601 28.9646 63.6398 26.0732C64.713 23.1992 67.438 23.3282 68.5063 26.2116C69.4585 28.7814 69.0535 32.3681 68.7031 35.0376C68.3496 37.7319 66.7132 41.1862 63.8216 42.1164C59.6265 43.4659 56.2999 41.7146 53.7367 30.1883" fill="#0042FF"/>
<path fill-rule="evenodd" clip-rule="evenodd" d="M55.3695 22.5111C55.3695 28.8038 55.9811 40.6412 50.0637 44.8362C48.0891 46.2361 42.4303 45.9862 40.2549 45.0228C36.85 43.5147 36.0271 38.7706 35.5372 36.1908C34.711 31.8423 33.8823 22.116 38.4337 19.4562C41.5844 17.6146 55.9403 16.8977 55.7622 22.5111" fill="#0042FF"/>
<path fill-rule="evenodd" clip-rule="evenodd" d="M54.2 25.2289C54.2 25.2289 54.7641 31.2681 54.5383 33.6958C54.3141 36.1097 53.6903 40.3512 52.3955 42.3405C54.5457 40.3877 55.1896 36.2712 55.425 33.2335C55.7959 28.4487 54.2 25.2289 54.2 25.2289Z" fill="black"/>
<path fill-rule="evenodd" clip-rule="evenodd" d="M32.8759 40.7396C34.7096 39.5488 35.888 40.6945 36.7764 41.3446C39.4511 43.301 39.7901 44.709 39.4834 45.9336C39.1315 47.3389 37.7378 48.5193 35.6397 48.8332C33.2622 49.189 30.1418 48.584 30.4612 47.6651C30.5817 47.3185 31.572 47.4994 31.572 47.4994C31.572 47.4994 30.4957 47.2152 30.699 46.6808C30.8806 46.2035 31.8061 46.4761 32.1925 46.4672C31.802 46.4265 30.9455 46.3404 30.9854 45.819C31.0295 45.2388 31.8812 45.3255 32.3149 45.3999C33.1189 45.5385 35.0123 45.4969 36.0028 45.1509C36.0028 45.1509 30.3562 42.3759 32.8759 40.7396Z" fill="#FFC5EB"/>
<path fill-rule="evenodd" clip-rule="evenodd" d="M40.602 18.7184C30.572 21.013 22.3914 26.3102 20.0607 28.6095C17.3626 31.2713 16.5079 33.9132 17.8866 35.861C20.2187 39.1557 32.1793 44.5081 33.7792 44.6412C35.8583 44.8138 38.2242 42.709 37.0079 40.6658C35.9688 38.9197 28.879 34.4405 26.8578 33.66C28.0006 32.9965 33.9506 30.7756 35.5631 29.3607C37.2308 27.8973 38.405 26.442 39.0696 24.3707C39.4162 23.2923 39.9228 20.9169 38.9303 20.1773" fill="#0042FF"/>
<path fill-rule="evenodd" clip-rule="evenodd" d="M49.2725 19.7097C49.2487 18.245 49.2168 17.1179 49.3365 16.389C49.3693 16.1903 48.7724 15.1683 46.6184 15.1078C44.0926 15.0366 43.4384 15.9506 43.5379 16.3563C43.8441 17.6038 43.5026 18.2455 43.5871 18.834C43.5871 18.834 43.5862 21.5696 46.7916 21.6019C49.458 21.6286 49.2725 19.7097 49.2725 19.7097Z" fill="#FFC5EB"/>
<path fill-rule="evenodd" clip-rule="evenodd" d="M44.7609 15.6234C45.1509 15.4812 45.8305 15.3809 46.0211 15.3746C47.9531 15.3126 48.7414 15.9436 48.8143 16.0704C48.9257 16.2644 48.8821 16.4742 48.7403 16.6349C48.5939 16.8 47.6058 17.2899 46.3302 17.2243C45.1137 17.1622 44.1383 16.8776 43.9808 16.442C43.8036 15.9527 44.3684 15.7665 44.7609 15.6234Z" fill="#FA0000"/>
<path fill-rule="evenodd" clip-rule="evenodd" d="M46.165 16.0051C46.3893 15.9833 46.7354 15.9692 46.9121 16.1132C47.1254 16.2866 47.0597 16.4578 46.792 16.5242C46.5861 16.5757 46.0759 16.5793 45.9069 16.4554C45.6522 16.2686 45.8978 16.023 46.165 16.0051Z" fill="#FFC5EB"/>
<path fill-rule="evenodd" clip-rule="evenodd" d="M41.875 18.4581C44.2797 18.0739 47.3672 17.9713 50.0204 18.3752C50.5241 19.9509 51.4966 24.373 48.737 29.4444C48.737 29.4444 45.6993 22.6878 41.875 18.4581Z" fill="#FFC5EB"/>
<path fill-rule="evenodd" clip-rule="evenodd" d="M50.2673 18.0779C50.1157 17.6489 49.4597 18.093 49.577 18.4254C50.7144 21.6485 50.0228 25.7696 48.7253 28.8931C47.15 25.0265 44.9523 21.161 42.0227 18.0917C41.7639 17.8207 41.2167 18.4234 41.4855 18.7049C44.5377 21.9024 46.7757 26.0068 48.3449 30.0302C48.4525 30.3061 48.8796 30.0287 48.9511 29.8749C50.5278 26.4705 51.5649 21.7551 50.2673 18.0779Z" fill="black"/>
<path fill-rule="evenodd" clip-rule="evenodd" d="M69.4987 20.3873C69.4755 19.5294 68.9709 19.4462 68.4364 20.0718C68.483 19.0659 67.8213 18.3582 67.2667 19.3834C67.2832 17.9877 68.3419 14.2304 67.4934 14.1358C66.7024 14.0477 66.1786 18.03 66.1447 19.2068C65.5066 17.3651 65.8035 13.958 64.9552 13.9332C63.9932 13.9055 64.7196 18.8132 64.9799 20.2932C64.5199 19.9617 64.0607 19.8729 63.9109 20.6301C63.7609 21.3906 64.167 22.8301 64.5203 23.8852C64.9043 25.0318 65.429 26.1894 66.7926 26.1265C68.2372 26.0597 68.7737 24.1631 69.0451 23.1287C69.3378 22.014 69.5163 21.041 69.4987 20.3873Z" fill="#FFC5EB"/>
<path fill-rule="evenodd" clip-rule="evenodd" d="M47.1049 14.389C47.3824 13.9956 48.4937 12.1348 47.6639 11.8449C46.7575 11.5288 46.9159 14.057 47.1049 14.389Z" fill="#FA0000"/>
<path fill-rule="evenodd" clip-rule="evenodd" d="M45.5074 14.2035C45.4693 13.5396 45.1372 11.2676 44.4895 11.139C43.0929 10.8614 44.8969 14.0562 45.5074 14.2035Z" fill="#FA0000"/>
<path fill-rule="evenodd" clip-rule="evenodd" d="M49.3241 16.952C49.3905 16.4438 49.4866 16.0967 49.7021 15.9296C50.2364 15.5155 51.7429 16.1147 52.0569 15.2365C52.1962 14.8471 51.2623 13.5934 51.2478 13.1884C51.2351 12.8371 53.6506 13.1544 53.3436 12.629C53.0835 12.184 50.3347 12.629 49.7405 8.77271C49.5751 7.69871 48.5857 6.94266 46.0628 6.51035C45.2771 6.37596 43.3875 6.19262 41.9633 7.12422C40.6756 7.9666 40.3333 11.0462 41.9294 13.4554C42.9292 14.9644 43.3538 16.0528 43.5339 16.8785C43.5683 17.0352 43.9086 18.1303 46.5275 18.1303C49.2581 18.1303 49.3101 17.0596 49.3241 16.952Z" fill="#FFC5EB"/>
<path fill-rule="evenodd" clip-rule="evenodd" d="M49.0728 7.61747C48.6996 7.95288 47.2732 7.72301 46.369 7.81335C45.1939 7.93052 45.1476 8.5772 45.1393 9.65791C45.1284 11.1402 45.9775 15.36 43.3673 16.0313C40.9432 16.6645 37.9594 15.087 36.9158 12.9003C34.3546 7.53361 37.1436 1.85368 42.8569 0.788178C48.4505 -0.255189 53.9065 5.11146 49.8371 9.27621C49.716 8.51683 49.5666 8.02757 49.0728 7.61747Z" fill="black"/>
<path fill-rule="evenodd" clip-rule="evenodd" d="M45.1828 8.87451C45.1089 9.51605 45.3271 10.0567 45.8112 10.4317C46.2941 10.8054 46.7839 11.2289 46.5248 11.9252C47.0611 11.9823 47.6032 12.7226 47.1007 13.0424C46.0818 13.6918 44.7017 12.0285 44.7021 10.8407" fill="black"/>
<path fill-rule="evenodd" clip-rule="evenodd" d="M53.3662 13.8594C53.9678 13.8094 54.2252 12.535 54.6057 12.191C55.2206 11.634 55.5489 12.2484 55.1424 12.8026C56.05 12.4921 56.4108 13.3647 55.6212 13.6801C54.9173 13.9616 53.9988 13.9875 53.3662 13.8594Z" fill="#FA0000"/>
<path fill-rule="evenodd" clip-rule="evenodd" d="M48.9969 9.00665C48.574 9.3373 47.7162 9.22931 47.2646 9.05118C46.883 8.90097 46.3938 9.6901 46.8291 9.86154C47.5786 10.1567 48.6527 10.1239 49.3125 9.60865C49.7159 9.29346 49.4756 8.63262 48.9969 9.00665Z" fill="#0042FF"/>
<path fill-rule="evenodd" clip-rule="evenodd" d="M50.4169 9.95205H50.584C50.7898 9.95205 50.9728 9.76054 51.032 9.56856C51.0846 9.39781 51.0251 9.18323 50.8216 9.18323H50.6545C50.449 9.18323 50.2658 9.37474 50.2067 9.56672C50.1539 9.73746 50.2136 9.95205 50.4169 9.95205Z" fill="#0042FF"/>
<path fill-rule="evenodd" clip-rule="evenodd" d="M51.0451 11.5035C51.1722 11.5224 51.319 11.5049 51.4316 11.4355C51.5442 11.3662 51.6478 11.2312 51.6231 11.086C51.6001 10.9524 51.4548 10.9259 51.3543 10.9878C51.309 11.0155 51.41 10.97 51.3525 10.9894C51.3175 11.0012 51.2586 10.9982 51.2036 10.9901C50.9617 10.9543 50.7331 11.4573 51.0451 11.5035Z" fill="#0042FF"/>
<path fill-rule="evenodd" clip-rule="evenodd" d="M49.4772 11.0816C49.0544 11.1572 48.6341 11.0626 48.2351 10.9177C47.9701 10.8215 47.6353 11.3651 47.936 11.4743C48.4228 11.651 48.9185 11.7306 49.4302 11.639C49.7097 11.5889 49.859 11.0133 49.4772 11.0816Z" fill="#0042FF"/>
<path fill-rule="evenodd" clip-rule="evenodd" d="M48.3594 12.2156C49.0049 12.1671 49.6626 12.4184 50.1046 12.9062C50.3021 13.1242 50.7113 12.6346 50.5073 12.4096C50.017 11.8683 49.2529 11.5859 48.5375 11.6392C48.2667 11.6595 48.0157 12.2412 48.3594 12.2156Z" fill="#FA0000"/>
<path fill-rule="evenodd" clip-rule="evenodd" d="M52.3458 13.3609C51.9426 13.4296 51.4567 13.8429 51.5535 14.3099C51.6252 14.6562 52.014 14.7158 52.289 14.7958C52.4874 14.8535 52.6844 14.6943 52.776 14.524C52.8513 14.384 52.887 14.111 52.6877 14.0531C52.6186 14.033 52.5484 14.0166 52.4789 13.9975C52.437 13.9857 52.396 13.9721 52.3548 13.9576C52.3347 13.9504 52.3146 13.9423 52.295 13.9336C52.209 13.8973 52.3318 13.9638 52.2598 13.9156C52.2453 13.9052 52.2317 13.8936 52.2192 13.881C52.242 13.9128 52.2451 13.9137 52.2286 13.8842C52.2776 13.9839 52.2021 14.0951 52.1354 14.1597C52.1711 14.1313 52.1693 14.1311 52.1301 14.159C52.1499 14.1468 52.1702 14.1359 52.1909 14.1258C52.1535 14.1396 52.1548 14.1394 52.1947 14.1253C52.2235 14.1156 52.2531 14.1098 52.2828 14.105C52.6565 14.0411 52.8558 13.2739 52.3458 13.3609Z" fill="#0042FF"/>
<path fill-rule="evenodd" clip-rule="evenodd" d="M52.8586 1.99764C53.4265 1.52372 54.7843 0.226336 55.5553 0.209871C57.9556 0.159364 56.6105 4.93061 54.5679 6.14634C53.632 6.70348 52.5769 6.88993 51.6283 6.86968C50.734 6.85077 49.7843 6.25025 48.0563 7.2753C46.6924 8.08385 44.0604 10.0603 42.4061 11.5815C41.1696 12.7185 40.026 12.6362 39.5693 12.1869C36.3299 8.99765 38.1172 5.66018 39.4576 4.3252C40.9104 2.87851 44.745 1.06204 47.9723 4.03884C48.9103 3.90156 50.8243 3.69553 52.8586 1.99764Z" fill="#FA0000"/>
<path fill-rule="evenodd" clip-rule="evenodd" d="M47.5703 7.5929C48.3107 6.94811 49.2832 6.54939 50.167 6.19562C50.9755 5.87188 51.8671 5.66585 52.6803 5.30896C53.6103 4.90135 54.3614 4.2917 54.9548 3.4382C55.345 2.87639 55.5443 1.93033 56.0771 1.53784C55.7671 3.00544 54.8994 4.46814 53.5721 5.23643C52.1226 6.07614 49.2459 6.86534 47.5703 7.5929Z" fill="black"/>
<path fill-rule="evenodd" clip-rule="evenodd" d="M47.7197 10.3829C47.7197 11.2935 48.2696 12.0314 48.9474 12.0314C49.6247 12.0314 50.1746 11.2935 50.1746 10.3829C50.1746 9.47262 49.6247 8.73438 48.9474 8.73438C48.2696 8.73438 47.7197 9.47262 47.7197 10.3829Z" fill="#FA0000"/>
<path fill-rule="evenodd" clip-rule="evenodd" d="M48.9473 8.94463C48.3865 8.94463 47.9305 9.58965 47.9305 10.3826C47.9305 11.1754 48.3865 11.8206 48.9473 11.8206C49.5079 11.8206 49.9637 11.1754 49.9637 10.3826C49.9637 9.58965 49.5079 8.94463 48.9473 8.94463ZM48.9473 12.2416C48.154 12.2416 47.5088 11.4077 47.5088 10.3826C47.5088 9.35736 48.154 8.52344 48.9473 8.52344C49.7403 8.52344 50.3854 9.35736 50.3854 10.3826C50.3854 11.4077 49.7403 12.2416 48.9473 12.2416Z" fill="#FA0000"/>
<path fill-rule="evenodd" clip-rule="evenodd" d="M50.5391 10.3014C50.5391 11.2119 51.0889 11.9499 51.7665 11.9499C52.4443 11.9499 52.9939 11.2119 52.9939 10.3014C52.9939 9.39098 52.4443 8.65295 51.7665 8.65295C51.0889 8.65295 50.5391 9.39098 50.5391 10.3014Z" fill="#FA0000"/>
<path fill-rule="evenodd" clip-rule="evenodd" d="M51.7654 8.86308C51.2049 8.86308 50.7489 9.50811 50.7489 10.3011C50.7489 11.0938 51.2049 11.7391 51.7654 11.7391C52.326 11.7391 52.782 11.0938 52.782 10.3011C52.782 9.50811 52.326 8.86308 51.7654 8.86308ZM51.7654 12.1601C50.9722 12.1601 50.3271 11.3261 50.3271 10.3011C50.3271 9.27582 50.9722 8.44189 51.7654 8.44189C52.5587 8.44189 53.2037 9.27582 53.2037 10.3011C53.2037 11.3261 52.5587 12.1601 51.7654 12.1601Z" fill="#FA0000"/>
<path fill-rule="evenodd" clip-rule="evenodd" d="M47.6358 10.9319H44.3902C44.2885 10.9319 44.2061 10.8495 44.2061 10.7478C44.2061 10.646 44.2885 10.5637 44.3902 10.5637H47.6358C47.7375 10.5637 47.8199 10.646 47.8199 10.7478C47.8199 10.8495 47.7375 10.9319 47.6358 10.9319Z" fill="#FA0000"/>
<path fill-rule="evenodd" clip-rule="evenodd" d="M48.436 10.9211C48.6807 10.5233 49.3195 10.6277 49.4806 11.0293C49.583 11.2836 49.9984 10.9158 49.9057 10.6848C49.5691 9.84691 48.43 10.18 48.0528 10.7932C47.86 11.1067 48.2771 11.1797 48.436 10.9211Z" fill="black"/>
<path fill-rule="evenodd" clip-rule="evenodd" d="M51.1521 10.7877C51.4118 10.4668 52.0392 10.4105 52.1379 10.8945C52.2001 11.2002 52.6466 10.8918 52.598 10.653C52.4161 9.75861 51.297 9.98911 50.8534 10.5373C50.6372 10.8043 50.9348 11.0562 51.1521 10.7877Z" fill="black"/>
<path fill-rule="evenodd" clip-rule="evenodd" d="M106.841 87.0746C105.25 87.2234 104.339 89.8046 104.048 93.9863C103.855 96.7599 100.216 99.84 100.294 95.5696C100.299 95.4688 100.303 95.3678 100.304 95.2667C100.304 95.2592 100.304 95.2525 100.305 95.2449L100.304 95.2452C100.326 93.3898 99.7443 91.4865 98.7803 89.8554C96.8487 86.5864 91.7553 82.9724 90.9719 79.0097C90.5451 76.8513 91.8828 74.6318 92.8504 72.5221C93.1352 74.107 93.6187 75.6317 94.6865 76.9569C95.5854 78.0732 97.274 79.2204 98.6067 79.5982C100.34 80.0902 101.777 78.9236 100.289 77.3247C99.1503 76.1005 97.0921 75.4221 95.7691 74.222C94.7913 73.3349 93.9824 72.1508 93.4943 70.8959C93.5054 70.8594 93.5159 70.8231 93.5266 70.7868C94.4815 71.9207 95.6784 72.8587 96.9667 73.516C98.3789 74.236 100.345 75.1914 101.935 74.6369C104.138 73.8682 102.493 72.0635 101.054 71.6866C99.1398 71.1853 97.1849 70.8369 95.5676 69.534C94.0948 68.3472 93.3479 65.4578 91.4611 64.9391L91.4542 64.9596C90.8883 64.7749 90.1724 64.7264 89.2588 64.8906C85.36 65.5904 83.0759 63.1476 82.7645 63.7817C82.1852 64.9605 85.6948 67.3813 89.0943 67.0985C88.8183 69.0756 84.8376 67.2513 84.7244 67.6874C84.5068 68.6113 87.4697 68.9383 88.231 69.3092C89.9149 70.1296 88.8125 71.4546 87.7607 72.27C87.3373 72.5984 86.9579 72.9248 86.6127 73.2526C85.8622 72.4062 85.075 71.5491 84.098 71.1166C83.3714 70.7946 79.8231 70.5955 79.8304 71.5838C79.8462 73.6028 83.7938 71.3226 84.6096 74.5471C84.6537 74.7219 84.6987 75.1389 84.8289 75.597C84.2422 76.8257 84.1081 78.1662 84.4041 79.7646C83.0578 79.6093 81.7918 79.3755 80.574 80.1634C79.9194 80.5865 77.222 81.8532 78.3647 82.8006C78.932 83.2712 81.8718 81.3927 82.8151 81.6149C83.3797 81.7484 84.4217 82.2008 85.4802 82.5459C86.5928 84.4349 88.3131 86.0462 89.8944 87.4077C91.0994 88.4447 92.9783 90.4724 93.6028 91.8983C93.9686 92.7325 94.2053 93.3926 94.3636 94.1614C91.7058 93.7389 88.7299 94.9339 89.2802 97.2387C89.5505 98.3724 91.0341 98.9469 90.4554 99.8531C89.7612 100.94 86.9171 99.7694 86.98 100.814C87.0504 101.989 90.1717 101.949 91.3898 101.247C92.7044 100.49 91.8142 98.7368 93.145 97.9305C93.6048 97.6521 94.1188 97.4639 94.6578 97.3451C94.5327 97.7122 94.485 98.1559 94.5472 98.6741C94.8724 101.387 97.558 101.6 98.2104 102.738C98.758 103.693 97.6061 104.122 96.793 104.349C95.823 104.62 94.6199 104.663 95.1461 105.293C96.1157 106.455 100.307 105.255 100.307 103.107C100.307 101.773 98.7923 100.429 99.3988 98.7738C99.4639 98.6574 99.525 98.5392 99.5827 98.4202C101.29 100.817 105.506 98.0607 105.192 95.7872C105.907 96.2533 106.86 95.0516 105.862 92.8157C108.564 94.846 108.199 91.7884 107.306 90.2111C107.914 90.6784 109.684 91.5243 110.157 90.8502C111.037 89.5955 108.703 86.9004 106.841 87.0746Z" fill="#FD839D"/>
<path fill-rule="evenodd" clip-rule="evenodd" d="M90.6132 66.2886C90.1908 66.2108 89.8393 66.0136 89.5756 65.6719C89.3701 65.4055 88.9034 65.8476 89.0786 66.0746C89.3931 66.4822 89.7901 66.7528 90.302 66.8471C90.4621 66.8767 90.6047 66.781 90.6818 66.6428C90.7349 66.5476 90.7734 66.3182 90.6132 66.2886Z" fill="black"/>
<path fill-rule="evenodd" clip-rule="evenodd" d="M88.462 64.6289C88.1995 64.6229 87.9839 64.4972 87.835 64.2825C87.644 64.007 87.1731 64.4478 87.3382 64.6854C87.5629 65.0091 87.8776 65.1978 88.2766 65.2074C88.5621 65.2143 88.8271 64.6376 88.462 64.6289Z" fill="black"/>
<path fill-rule="evenodd" clip-rule="evenodd" d="M82.6443 64.3674C82.7446 64.4631 82.8451 64.5585 82.9456 64.6542C83.1509 64.8502 83.4915 64.6373 83.6314 64.4709C83.7901 64.2819 83.8996 63.9609 83.6934 63.7646C83.5931 63.6687 83.4926 63.5731 83.392 63.4774C83.1868 63.2816 82.8462 63.4945 82.7062 63.661C82.5475 63.8499 82.4381 64.1709 82.6443 64.3674Z" fill="black"/>
<path fill-rule="evenodd" clip-rule="evenodd" d="M87.5417 71.997C88.4351 73.5249 90.4074 74.5143 92.1174 74.7426C92.6017 74.8071 93.0591 73.8373 92.4343 73.7538C90.9461 73.5558 89.1639 72.6296 88.3914 71.3081C88.1047 70.818 87.2901 71.5667 87.5417 71.997Z" fill="black"/>
</svg>