<svg width="145" height="123" viewBox="0 0 145 123" fill="none" xmlns="http://www.w3.org/2000/svg">
<path fill-rule="evenodd" clip-rule="evenodd" d="M14.0318 89.0294C14.0318 89.0294 12.8813 97.6962 4.07974 91.0952C-4.72179 84.494 4.95991 78.9198 4.95991 78.9198C4.95991 78.9198 -3.10829 72.4653 2.46607 67.3311C8.04025 62.1969 16.5484 62.1969 16.5484 62.1969C16.5484 62.1969 18.1621 52.2221 25.7898 58.9697C33.4178 65.7176 26.9635 70.7051 26.9635 70.7051C26.9635 70.7051 28.9312 71.5239 30.5144 74.195C32.0977 76.8661 14.0318 89.0294 14.0318 89.0294Z" fill="#56ACF6"/>
<mask id="mask0" mask-type="alpha" maskUnits="userSpaceOnUse" x="9" y="1" width="136" height="122">
<path d="M9.85059 1.8092H144.615V122.194H9.85059V1.8092Z" fill="white"/>
</mask>
<g mask="url(#mask0)">
<path fill-rule="evenodd" clip-rule="evenodd" d="M90.7738 56.7694C90.7738 56.7694 78.7451 70.2649 62.0223 72.1719C45.2995 74.0789 22.4157 64.6907 12.5874 90.655C2.75899 116.619 22.5624 121.9 22.5624 121.9L53.6608 121.754L70.3835 117.206L80.0652 107.525C80.0652 107.525 89.4534 111.485 94.0009 121.607L139.768 122.194C139.768 122.194 144.169 116.326 144.609 106.204C145.049 96.0827 120.112 68.7981 120.992 60.2899C121.872 51.7819 121.139 38.5797 118.352 30.2183C115.565 21.8569 111.31 3.37389 103.242 2.20038C95.1744 1.02671 91.5071 4.54739 86.0796 2.20038C80.6521 -0.146794 79.0384 8.50807 82.5591 16.4293C86.0796 24.3506 93.1208 50.4617 90.7738 56.7694Z" fill="#56ACF6"/>
</g>
<path fill-rule="evenodd" clip-rule="evenodd" d="M90.2637 47.2046C90.2637 47.2046 106.03 56.0359 114.538 53.9822L115.418 63.9572C115.418 63.9572 98.8417 64.6907 90.7737 56.7694L90.2637 47.2046Z" fill="#E93737"/>
<path fill-rule="evenodd" clip-rule="evenodd" d="M106.617 67.4045C106.617 70.4427 104.154 72.9054 101.116 72.9054C98.0781 72.9054 95.6152 70.4427 95.6152 67.4045C95.6152 64.3664 98.0781 61.9037 101.116 61.9037C104.154 61.9037 106.617 64.3664 106.617 67.4045Z" fill="#E93737"/>
<path fill-rule="evenodd" clip-rule="evenodd" d="M107.644 4.84071C107.644 4.84071 122.753 21.7103 125.247 31.6851C127.74 41.6602 132.92 64.2201 123.436 65.3355C113.952 66.4509 114.685 67.3311 111.458 52.5154C108.231 37.6995 103.39 25.9643 105.297 20.8301C107.204 15.6959 102.681 3.77288 107.644 4.84071Z" fill="#56ACF6"/>
<path fill-rule="evenodd" clip-rule="evenodd" d="M87.8408 3.44718C87.8408 5.35107 86.2974 6.89435 84.3935 6.89435C82.4897 6.89435 80.9463 5.35107 80.9463 3.44718C80.9463 1.54328 82.4897 0 84.3935 0C86.2974 0 87.8408 1.54328 87.8408 3.44718Z" fill="#204EB2"/>
<path fill-rule="evenodd" clip-rule="evenodd" d="M71.1173 121.607L95.7718 122.115L92.5342 106.204L71.1173 106.351C71.1173 106.351 66.8631 118.82 71.1173 121.607Z" fill="#56ACF6"/>
<path fill-rule="evenodd" clip-rule="evenodd" d="M91.0533 19.0524C87.0798 19.0524 84.1908 18.1897 82.4418 16.4755C80.6507 14.72 80.7851 12.726 80.7918 12.642L82.1712 12.7504L81.4814 12.6963L82.1715 12.7447C82.1679 12.8044 82.0971 14.2224 83.4398 15.5161C84.7504 16.7787 87.6851 18.1482 94.2267 17.5012L94.3628 18.878C93.1874 18.9943 92.0839 19.0524 91.0533 19.0524Z" fill="#204EB2"/>
<path fill-rule="evenodd" clip-rule="evenodd" d="M53.2624 111.928C53.2071 98.6073 50.5097 89.9543 45.462 86.9046C41.0789 84.2563 36.2799 86.6958 36.2315 86.7207L35.5898 85.495C35.8128 85.3781 41.1045 82.6671 46.1623 85.711C51.7332 89.0637 54.5876 97.8826 54.6461 111.922L53.2624 111.928Z" fill="#204EB2"/>
<path fill-rule="evenodd" clip-rule="evenodd" d="M104.776 112.694C102.067 102.762 98.9667 95.3698 96.8426 90.9176C94.5411 86.0935 92.8586 83.586 92.8418 83.5613L93.988 82.7863C94.0578 82.8897 95.7307 85.3792 98.0732 90.2835C100.227 94.7928 103.37 102.278 106.111 112.33L104.776 112.694Z" fill="#204EB2"/>
<path fill-rule="evenodd" clip-rule="evenodd" d="M115.353 111.552L114.897 110.245C115.159 110.154 121.384 108.008 129.021 107.567L129.101 108.949C121.666 109.378 115.415 111.53 115.353 111.552Z" fill="#204EB2"/>
<path fill-rule="evenodd" clip-rule="evenodd" d="M93.3636 121.875C88.8199 111.084 69.9653 101.343 69.7754 101.246L70.4055 100.014C70.4539 100.039 75.3172 102.539 80.6877 106.375C87.9478 111.561 92.6415 116.595 94.6388 121.338L93.3636 121.875Z" fill="#204EB2"/>
<mask id="mask1" mask-type="alpha" maskUnits="userSpaceOnUse" x="94" y="121" width="14" height="21">
<path d="M94.001 121.607H107.377V142H94.001V121.607Z" fill="white"/>
</mask>
<g mask="url(#mask1)">
<path fill-rule="evenodd" clip-rule="evenodd" d="M94.001 121.607C94.001 121.607 96.788 142.29 102.216 141.997C107.643 141.704 108.224 133.412 106.54 121.789L94.001 121.607Z" fill="#AEE2FF"/>
</g>
<path fill-rule="evenodd" clip-rule="evenodd" d="M115.125 110.898C115.125 110.898 119.046 115.45 117.912 121.9L106.47 121.754C106.47 121.754 98.9886 117.206 105.443 112.512L115.125 110.898Z" fill="#AEE2FF"/>
<path fill-rule="evenodd" clip-rule="evenodd" d="M53.8076 121.754L71.1172 121.607C71.1172 121.607 74.7843 117.059 67.5967 113.686C60.4086 110.312 53.9543 111.632 53.9543 111.632L53.8076 121.754Z" fill="#AEE2FF"/>
<path fill-rule="evenodd" clip-rule="evenodd" d="M106.459 3.41943C106.459 3.41943 124.22 12.6155 124.807 22.7372C125.394 32.8587 132.875 35.2059 132.141 49.4349C131.408 63.664 126.543 64.875 122.301 65.1497C118.059 65.4241 117.912 41.5136 117.912 41.5136C117.912 41.5136 97.9387 4.93193 106.459 3.41943Z" fill="#56ACF6"/>
<path fill-rule="evenodd" clip-rule="evenodd" d="M118.996 66.5612C118.059 66.5612 117.035 66.3867 116.04 65.8758C113.824 64.7369 112.392 62.2629 111.785 58.5231C111.006 53.7276 109.653 50.017 108.459 46.7431C107.005 42.7568 105.75 39.3141 106.134 35.4005C106.787 28.7563 105.676 25.1837 105.665 25.1484L106.983 24.7266C107.032 24.8819 108.192 28.6098 107.511 35.5358C107.158 39.1358 108.306 42.2838 109.759 46.269C110.974 49.6005 112.351 53.3765 113.151 58.3014C113.684 61.5837 114.869 63.718 116.672 64.645C119.132 65.9085 121.977 64.5252 122.006 64.511L122.621 65.7506C122.525 65.7981 120.953 66.5612 118.996 66.5612Z" fill="#204EB2"/>
</svg>
