<svg width="17" height="15" viewBox="0 0 19 19" fill="none" xmlns="http://www.w3.org/2000/svg">
<path d="M13.2607 1.58337H5.34408C4.47087 1.58337 3.76074 2.2935 3.76074 3.16671V15.8334C3.76074 16.7066 4.47087 17.4167 5.34408 17.4167H13.2607C14.134 17.4167 14.8441 16.7066 14.8441 15.8334V3.16671C14.8441 2.2935 14.134 1.58337 13.2607 1.58337ZM5.34408 15.8334V3.16671H13.2607L13.2623 15.8334H5.34408Z" fill="#545454"/>
<path d="M9.30241 15.0417C9.73963 15.0417 10.0941 14.6873 10.0941 14.25C10.0941 13.8128 9.73963 13.4584 9.30241 13.4584C8.86518 13.4584 8.51074 13.8128 8.51074 14.25C8.51074 14.6873 8.86518 15.0417 9.30241 15.0417Z" fill="#545454"/>
</svg>
