<svg width="21" height="21" viewBox="0 0 21 21" fill="none" xmlns="http://www.w3.org/2000/svg">
<path d="M8.25987 9.8437H5.90918C5.73513 9.8437 5.56821 9.91284 5.44514 10.0359C5.32207 10.159 5.25293 10.3259 5.25293 10.5C5.25293 10.674 5.32207 10.8409 5.44514 10.964C5.56821 11.0871 5.73513 11.1562 5.90918 11.1562H8.25855L7.41068 12.0054C7.34975 12.0664 7.30144 12.1388 7.26849 12.2185C7.23555 12.2982 7.21863 12.3836 7.21869 12.4698C7.21881 12.644 7.28811 12.8109 7.41134 12.934C7.53456 13.057 7.70162 13.1261 7.87577 13.126C8.04991 13.1258 8.21688 13.0566 8.33993 12.9333L10.3087 10.9646C10.4317 10.8415 10.5008 10.6746 10.5008 10.5006C10.5008 10.3266 10.4317 10.1597 10.3087 10.0366L8.33993 8.06789C8.21688 7.94466 8.04991 7.87537 7.87577 7.87524C7.70162 7.87512 7.53456 7.94418 7.41134 8.06723C7.28811 8.19029 7.21881 8.35725 7.21869 8.5314C7.21857 8.70554 7.28763 8.8726 7.41068 8.99583L8.25987 9.8437Z" fill="white"/>
<path d="M15.75 17.0638C16.4462 17.0638 17.1139 16.7873 17.6062 16.295C18.0984 15.8027 18.375 15.135 18.375 14.4388V6.5625C18.375 5.86631 18.0984 5.19863 17.6062 4.70634C17.1139 4.21406 16.4462 3.9375 15.75 3.9375H5.25C4.55381 3.9375 3.88613 4.21406 3.39384 4.70634C2.90156 5.19863 2.625 5.86631 2.625 6.5625V14.4401C2.625 15.1363 2.90156 15.804 3.39384 16.2963C3.88613 16.7886 4.55381 17.0651 5.25 17.0651H15.75V17.0638ZM11.8125 15.7513H5.25C4.9019 15.7513 4.56806 15.613 4.32192 15.3669C4.07578 15.1207 3.9375 14.7869 3.9375 14.4388V6.5625C3.9375 6.2144 4.07578 5.88056 4.32192 5.63442C4.56806 5.38828 4.9019 5.25 5.25 5.25H11.8125V15.7526V15.7513Z" fill="white"/>
</svg>
