<svg width="16" height="16" viewBox="0 0 16 16" fill="none" xmlns="http://www.w3.org/2000/svg">
<path d="M15.8628 6.80558L14.0894 6.26784C13.9636 5.83628 13.7912 5.41953 13.5751 5.02487L14.4618 3.38522C14.4953 3.32264 14.5073 3.25093 14.4961 3.18095C14.4849 3.11097 14.4511 3.04651 14.3998 2.99734L13.0875 1.71911C13.038 1.66809 12.9732 1.63447 12.9028 1.62334C12.8324 1.6122 12.7603 1.62416 12.6973 1.65741L11.057 2.53894C10.6565 2.30735 10.2312 2.12107 9.789 1.98357L9.24812 0.220502C9.22548 0.154749 9.18229 0.0979067 9.12487 0.0582633C9.06745 0.01862 8.9988 -0.00175169 8.92892 0.000118115H7.15555C7.08607 0.000729506 7.01859 0.0232534 6.96281 0.0644441C6.90704 0.105635 6.86586 0.163366 6.84521 0.229318L6.30433 1.99239C5.85985 2.12366 5.43157 2.30403 5.0275 2.53013L3.41374 1.64859C3.35079 1.61535 3.27867 1.60339 3.20828 1.61452C3.13789 1.62565 3.07306 1.65927 3.0236 1.7103L1.72017 2.97971C1.66885 3.02888 1.63503 3.09334 1.62383 3.16332C1.61263 3.2333 1.62466 3.30501 1.6581 3.36759L2.54479 4.97198C2.31737 5.3737 2.13594 5.7995 2.00391 6.24139L0.230538 6.77913C0.164201 6.79966 0.106133 6.8406 0.0647017 6.89605C0.0232704 6.9515 0.000614963 7.0186 0 7.08767V8.85074C0.000614963 8.91981 0.0232704 8.98691 0.0647017 9.04235C0.106133 9.0978 0.164201 9.13874 0.230538 9.15928L2.00391 9.69701C2.13778 10.1298 2.31917 10.5466 2.54479 10.94L1.6581 12.6149C1.62466 12.6775 1.61263 12.7492 1.62383 12.8192C1.63503 12.8891 1.66885 12.9536 1.72017 13.0028L2.97039 14.3251C3.01986 14.3761 3.08468 14.4097 3.15508 14.4209C3.22547 14.432 3.29759 14.42 3.36054 14.3868L5.01864 13.5053C5.41032 13.7158 5.82349 13.8843 6.25113 14.0077L6.79201 15.7708C6.81266 15.8368 6.85384 15.8945 6.90961 15.9357C6.96538 15.9769 7.03287 15.9994 7.10235 16H8.87572C8.94519 15.9994 9.01268 15.9769 9.06845 15.9357C9.12422 15.8945 9.1654 15.8368 9.18606 15.7708L9.72693 14.0077C10.1517 13.8841 10.5619 13.7156 10.9506 13.5053L12.6264 14.3868C12.6893 14.42 12.7615 14.432 12.8319 14.4209C12.9022 14.4097 12.9671 14.3761 13.0165 14.3251L14.3022 13.0469C14.3535 12.9977 14.3874 12.9332 14.3986 12.8632C14.4098 12.7933 14.3977 12.7216 14.3643 12.659L13.4776 11.0017C13.6925 10.6126 13.8649 10.2019 13.9919 9.77635L15.7653 9.23862C15.8316 9.21808 15.8897 9.17714 15.9311 9.12169C15.9725 9.06624 15.9952 8.99915 15.9958 8.93008V7.12293C16.0055 7.06297 15.9983 7.00149 15.9748 6.94542C15.9513 6.88935 15.9125 6.84091 15.8628 6.80558ZM8.0245 10.9664C7.43941 10.9717 6.86595 10.804 6.3769 10.4846C5.88785 10.1653 5.50527 9.70864 5.2777 9.17273C5.05014 8.63682 4.98786 8.04577 5.09877 7.47461C5.20967 6.90344 5.48877 6.37791 5.90063 5.96472C6.31248 5.55153 6.83853 5.26931 7.41201 5.15389C7.98548 5.03846 8.58052 5.09503 9.1216 5.31641C9.66268 5.5378 10.1254 5.91401 10.451 6.39731C10.7767 6.88061 10.9505 7.4492 10.9506 8.03091C10.9506 8.8049 10.6432 9.54758 10.0952 10.0973C9.54718 10.6471 8.80297 10.9595 8.0245 10.9664Z" fill="white"/>
</svg>
