<svg width="20" height="17" viewBox="0 0 20 17" fill="none" xmlns="http://www.w3.org/2000/svg">
<path d="M9.84766 5.19362L12.7106 7.91345L12.7243 7.77098C12.7243 6.34198 11.5018 5.18066 9.99762 5.18066L9.84766 5.19362Z" fill="#7B7B7B"/>
<path d="M9.99782 3.45375C12.5063 3.45375 14.5423 5.38787 14.5423 7.77097C14.5423 8.32789 14.4241 8.8589 14.2196 9.34673L16.8781 11.8723C18.2505 10.7844 19.3321 9.37696 20.0001 7.77097C18.4232 3.98048 14.5468 1.29517 9.99787 1.29517C8.72541 1.29517 7.50754 1.51101 6.37598 1.89956L8.33917 3.76026C8.85263 3.57032 9.41159 3.45375 9.99782 3.45375Z" fill="#7B7B7B"/>
<path d="M0.90887 1.10089L2.98113 3.06953L3.39468 3.46241C1.89502 4.57625 0.70893 6.05706 0 7.77096C1.57238 11.5615 5.45331 14.2468 9.99774 14.2468C11.4065 14.2468 12.7517 13.9877 13.9832 13.5171L14.3695 13.8841L17.0189 16.4053L18.1777 15.3088L2.0677 0L0.90887 1.10089ZM5.93503 5.87141L7.33926 7.20542C7.29836 7.39107 7.27109 7.57669 7.27109 7.77096C7.27109 9.19997 8.49352 10.3613 9.99774 10.3613C10.2022 10.3613 10.3977 10.3354 10.5885 10.2965L11.9928 11.6305C11.3883 11.9155 10.7158 12.0882 9.99774 12.0882C7.48922 12.0882 5.45331 10.1541 5.45331 7.77096C5.45331 7.08886 5.6351 6.4499 5.93503 5.87141Z" fill="#7B7B7B"/>
</svg>
