<svg width="21" height="12" viewBox="0 0 21 12" fill="none" xmlns="http://www.w3.org/2000/svg">
<path d="M10.0655 0C6.21929 0 2.7313 2.10432 0.157515 5.52231C-0.0525052 5.80233 -0.0525052 6.19355 0.157515 6.47358C2.7313 9.89568 6.21929 12 10.0655 12C13.9118 12 17.3998 9.89568 19.9736 6.47769C20.1836 6.19767 20.1836 5.80645 19.9736 5.52642C17.3998 2.10432 13.9118 0 10.0655 0ZM10.3415 10.2251C7.78826 10.3857 5.67982 8.2814 5.84043 5.72409C5.9722 3.61565 7.68119 1.90666 9.78964 1.77488C12.3428 1.61428 14.4513 3.7186 14.2907 6.27591C14.1548 8.38023 12.4458 10.0892 10.3415 10.2251ZM10.2138 8.27316C8.83837 8.35964 7.70179 7.22718 7.79238 5.85175C7.86239 4.71517 8.78483 3.79684 9.92141 3.72272C11.2968 3.63624 12.4334 4.7687 12.3428 6.14413C12.2687 7.28483 11.3463 8.20316 10.2138 8.27316Z" fill="#7B7B7B"/>
</svg>
