<svg width="37" height="37" viewBox="0 0 37 37" fill="none" xmlns="http://www.w3.org/2000/svg">
<path d="M4.54602 37C5.24595 37 5.92779 36.8555 6.59152 36.5664C7.25525 36.2773 7.744 36.0003 8.05776 35.7354C8.37152 35.4704 8.74563 35.1211 9.18007 34.6875C10.7248 36.2292 13.0418 37 16.1311 37H33.5088C33.8226 37 34.0941 36.8856 34.3234 36.6567C34.5527 36.4279 34.6673 36.1569 34.6673 35.8438C34.6673 35.5306 34.5527 35.2596 34.3234 35.0308C34.0941 34.8019 33.8226 34.6875 33.5088 34.6875C33.2192 34.6875 32.8753 34.4165 32.477 33.8745C32.0788 33.3325 31.6987 32.646 31.3366 31.8149C30.9746 30.9839 30.6669 29.9902 30.4134 28.834C30.16 27.6777 30.0333 26.5456 30.0333 25.4375C30.0333 24.8112 30.1117 24.2812 30.2686 23.8477C30.4255 23.4141 30.6186 23.0407 30.8479 22.7275C31.0772 22.4144 31.3065 22.0711 31.5357 21.6978C31.765 21.3244 31.9581 20.7703 32.115 20.0356C32.2719 19.3009 32.3503 18.4036 32.3503 17.3438C32.3503 16.7174 32.2719 16.2056 32.115 15.8081C31.9581 15.4106 31.765 15.1095 31.5357 14.9048C31.3065 14.7 31.0772 14.4893 30.8479 14.2725C30.6186 14.0557 30.4255 13.7244 30.2686 13.2788C30.1117 12.8332 30.0333 12.2611 30.0333 11.5625C30.0333 10.0208 30.8056 9.25 32.3503 9.25C33.4364 9.25 34.4803 8.83447 35.4819 8.00342C36.4836 7.17236 36.9844 6.43164 36.9844 5.78125C36.9844 5.22721 36.7249 4.70329 36.206 4.20947C35.6871 3.71566 35.1742 3.46875 34.6673 3.46875C34.257 3.46875 33.8769 3.34831 33.5269 3.10742C33.177 2.86654 32.8451 2.57747 32.5313 2.24023C32.2176 1.90299 31.8736 1.56576 31.4995 1.22852C31.1254 0.891276 30.6186 0.602214 29.979 0.361328C29.3394 0.120443 28.5852 0 27.7163 0C26.5819 0 25.6587 0.132487 24.9467 0.397461C24.2347 0.662435 23.7037 1.0057 23.3537 1.42725C23.0038 1.8488 22.7202 2.43896 22.503 3.19775C22.2857 3.95654 22.1349 4.70931 22.0504 5.45605C21.9659 6.2028 21.8151 7.1543 21.5979 8.31055C21.3807 9.4668 21.1031 10.5508 20.7652 11.5625C20.3066 12.9355 19.2265 14.688 17.525 16.8198C15.8234 18.9517 14.5865 20.2826 13.8141 20.8125C10.7248 22.86 9.18007 25.9434 9.18007 30.0625C9.18007 31.2428 8.4922 32.3088 7.11647 33.2603C5.74074 34.2118 4.11158 34.6875 2.22899 34.6875C1.60147 34.6875 0.865326 34.5671 0.0205803 34.3262C0.237801 35.1693 0.768784 35.8257 1.61353 36.2954C2.45828 36.7651 3.43578 37 4.54602 37ZM25.3992 25.4375C25.4717 25.8229 25.5682 26.3228 25.6889 26.937C25.8096 27.5513 26.069 28.4847 26.4673 29.7373C26.8655 30.9899 27.2818 31.8691 27.7163 32.375H23.0822C23.0822 31.3392 23.2029 30.4419 23.4443 29.6831C23.6856 28.9243 23.9511 28.3763 24.2407 28.0391C24.5304 27.7018 24.7959 27.3104 25.0372 26.8647C25.2786 26.4191 25.3992 25.9434 25.3992 25.4375Z" fill="white"/>
</svg>
