<svg width="32" height="37" viewBox="0 0 32 37" fill="none" xmlns="http://www.w3.org/2000/svg">
<g clip-path="url(#clip0)">
<path d="M2.28571 18.5C2.28571 19.2708 1.90476 20.8125 1.14286 23.125C0.380951 25.4375 -1.43051e-06 26.9792 -1.43051e-06 27.75C-1.43051e-06 29.3158 0.232141 30.7972 0.696427 32.1943C1.16071 33.5915 1.83928 34.7417 2.73214 35.645C3.625 36.5483 4.61905 37 5.71428 37H21.7143C22.0238 37 22.2917 36.8856 22.5179 36.6567C22.744 36.4279 22.8571 36.1569 22.8571 35.8438C22.8571 35.5306 22.744 35.2596 22.5179 35.0308C22.2917 34.8019 22.0238 34.6875 21.7143 34.6875C21.381 34.6875 21.1071 34.5791 20.8929 34.3623C20.6786 34.1455 20.5714 33.8685 20.5714 33.5312C20.5714 32.9049 20.8095 32.1763 21.2857 31.3452C21.7619 30.5142 22.3333 29.659 23 28.7798C23.6667 27.9006 24.3333 26.9912 25 26.0518C25.6667 25.1123 26.2381 24.0765 26.7143 22.9443C27.1905 21.8122 27.4286 20.7161 27.4286 19.6562C27.4286 17.8496 26.7143 16.3561 25.2857 15.1758C25.5714 14.3086 26.2857 13.875 27.4286 13.875C28.119 13.875 28.8393 13.6281 29.5893 13.1343C30.3393 12.6405 30.9286 12.1226 31.3571 11.5806C31.7857 11.0386 32 10.6471 32 10.4062C32 10.0931 31.8869 9.8221 31.6607 9.59326C31.4345 9.36442 31.1667 9.25 30.8571 9.25C30.6667 9.25 30.4643 9.08138 30.25 8.74414C30.0357 8.4069 29.7917 7.98535 29.5179 7.47949C29.244 6.97363 28.9286 6.46175 28.5714 5.94385C28.2143 5.42594 27.7381 4.94417 27.1429 4.49854C26.5476 4.0529 25.881 3.74577 25.1429 3.57715V0C24.5952 0 23.9524 0.427572 23.2143 1.28271C22.4762 2.13786 22 3.02311 21.7857 3.93848C20.6429 4.42025 19.7738 5.25732 19.1786 6.44971C18.5833 7.64209 18.2857 8.96094 18.2857 10.4062C18.2857 11.1048 18.1369 11.7673 17.8393 12.3936C17.5417 13.0199 17.119 13.5799 16.5714 14.0737C16.0238 14.5675 15.5774 14.9409 15.2321 15.1938C14.8869 15.4468 14.4524 15.7298 13.9286 16.043C13.8333 16.1152 13.7619 16.1634 13.7143 16.1875C12.3333 16.9824 11.1905 17.7533 10.2857 18.5C8.64286 19.873 7.27976 21.5954 6.19643 23.667C5.11309 25.7386 4.57143 27.485 4.57143 28.9062C4.57143 29.0026 4.55952 29.111 4.53571 29.2314C4.5119 29.3519 4.40476 29.5205 4.21428 29.7373C4.02381 29.9541 3.7619 30.0625 3.42857 30.0625C3.09524 30.0625 2.82143 29.8758 2.60714 29.5024C2.39286 29.1291 2.28571 28.5449 2.28571 27.75C2.28571 26.9069 2.44047 26.0638 2.75 25.2207C3.05952 24.3776 3.44047 23.5767 3.89286 22.8179C4.34524 22.0591 4.79762 21.2702 5.25 20.4512C5.70238 19.6322 6.08333 18.6506 6.39286 17.5063C6.70238 16.3621 6.85714 15.1517 6.85714 13.875C6.85714 12.7188 6.38095 11.6589 5.42857 10.6953C4.47619 9.73177 3.42857 9.25 2.28571 9.25C1.64286 9.25 1.10119 9.47282 0.660713 9.91846C0.220237 10.3641 -1.43051e-06 10.9121 -1.43051e-06 11.5625C-1.43051e-06 11.9479 0.0714271 12.2912 0.214284 12.5923C0.357141 12.8934 0.541665 13.1704 0.767856 13.4233C0.994046 13.6763 1.11905 13.8268 1.14286 13.875C1.90476 15.1517 2.28571 16.6934 2.28571 18.5Z" fill="#F9F9F9"/>
</g>
<defs>
<clipPath id="clip0">
<rect width="32" height="37" fill="white" transform="matrix(-1 0 0 1 32 0)"/>
</clipPath>
</defs>
</svg>
