<svg width="14" height="15" viewBox="0 0 14 15" fill="none" xmlns="http://www.w3.org/2000/svg">
<path d="M7 1.20532C9.6925 1.20532 11.875 3.54372 11.875 6.42854C11.875 8.63568 10.4275 11.041 7.57 13.6703C7.41111 13.8166 7.20853 13.8969 6.99906 13.8967C6.7896 13.8965 6.58715 13.8158 6.4285 13.6693L6.2395 13.4935C3.5085 10.9328 2.125 8.58639 2.125 6.42854C2.125 3.54372 4.3075 1.20532 7 1.20532ZM7 4.41961C6.50272 4.41961 6.02581 4.63126 5.67417 5.00801C5.32254 5.38476 5.125 5.89574 5.125 6.42854C5.125 6.96134 5.32254 7.47232 5.67417 7.84906C6.02581 8.22581 6.50272 8.43747 7 8.43747C7.49728 8.43747 7.9742 8.22581 8.32583 7.84906C8.67746 7.47232 8.875 6.96134 8.875 6.42854C8.875 5.89574 8.67746 5.38476 8.32583 5.00801C7.9742 4.63126 7.49728 4.41961 7 4.41961Z" fill="#00A59E"/>
</svg>
