<svg width="24" height="24" viewBox="0 0 24 24" fill="none" xmlns="http://www.w3.org/2000/svg">
<path fill-rule="evenodd" clip-rule="evenodd" d="M12.1887 7L12.1907 5L19.1907 5.007L19.1827 12.007L17.1827 12.005L17.1867 8.417L14.1427 11.461C14.8348 12.4916 15.1189 13.7428 14.9398 14.9712C14.7607 16.1997 14.1311 17.3176 13.1736 18.1077C12.216 18.8978 10.9988 19.3036 9.75873 19.2462C8.51862 19.1888 7.34417 18.6722 6.46373 17.797C5.58899 16.9243 5.06837 15.7586 5.00228 14.5248C4.93619 13.2909 5.32931 12.0763 6.10583 11.1151C6.88235 10.154 7.98726 9.51441 9.20746 9.31976C10.4277 9.12511 11.6767 9.38916 12.7137 10.061L15.7717 7.004L12.1887 7ZM7.87873 12.14C8.44152 11.5775 9.20472 11.2616 10.0004 11.2617C10.3944 11.2618 10.7846 11.3395 11.1485 11.4904C11.5125 11.6413 11.8432 11.8623 12.1217 12.141C12.4003 12.4197 12.6212 12.7505 12.7719 13.1145C12.9226 13.4785 13.0001 13.8687 13 14.2627C12.9999 14.6567 12.9222 15.0468 12.7713 15.4108C12.6205 15.7748 12.3994 16.1055 12.1207 16.384C11.5564 16.9388 10.7956 17.2482 10.0042 17.2447C9.21282 17.2412 8.45485 16.9251 7.89543 16.3653C7.33601 15.8055 7.02046 15.0473 7.01752 14.2559C7.01458 13.4645 7.32449 12.704 7.87973 12.14H7.87873Z" fill="#2F80ED"/>
</svg>
