<svg width="30" height="30" viewBox="0 0 30 30" fill="none" xmlns="http://www.w3.org/2000/svg">
<path d="M2.5 7.49375C2.5 6.80625 3.0575 6.25 3.74375 6.25H13.7563C14.0861 6.25 14.4025 6.38104 14.6357 6.61429C14.869 6.84753 15 7.16389 15 7.49375C15 7.82361 14.869 8.13997 14.6357 8.37321C14.4025 8.60646 14.0861 8.7375 13.7563 8.7375H3.74375C3.41389 8.7375 3.09753 8.60646 2.86429 8.37321C2.63104 8.13997 2.5 7.82361 2.5 7.49375Z" fill="#FF7B28"/>
<path d="M2.5 15C2.5 14.3125 3.0575 13.7562 3.74375 13.7562H26.2562C26.5861 13.7562 26.9025 13.8873 27.1357 14.1205C27.369 14.3538 27.5 14.6701 27.5 15C27.5 15.3298 27.369 15.6462 27.1357 15.8794C26.9025 16.1127 26.5861 16.2437 26.2562 16.2437H3.74375C3.41389 16.2437 3.09753 16.1127 2.86429 15.8794C2.63104 15.6462 2.5 15.3298 2.5 15Z" fill="#FF7B28"/>
<path d="M3.74375 21.2625C3.41389 21.2625 3.09753 21.3935 2.86429 21.6267C2.63104 21.86 2.5 22.1763 2.5 22.5062C2.5 22.8361 2.63104 23.1524 2.86429 23.3857C3.09753 23.6189 3.41389 23.75 3.74375 23.75H18.7563C19.0861 23.75 19.4025 23.6189 19.6357 23.3857C19.869 23.1524 20 22.8361 20 22.5062C20 22.1763 19.869 21.86 19.6357 21.6267C19.4025 21.3935 19.0861 21.2625 18.7563 21.2625H3.74375Z" fill="#FF7B28"/>
</svg>
