<svg width="94" height="159" viewBox="0 0 94 159" fill="none" xmlns="http://www.w3.org/2000/svg">
<path d="M71.5309 58.0368C71.5799 57.7894 71.755 57.5857 71.9923 57.5002C73.7823 56.8556 75.6135 56.3319 77.4632 55.9349C77.5514 55.9146 77.642 55.8934 77.7603 55.8654C79.284 55.5054 79.8101 55.4145 80.5847 55.4627C81.6785 55.5308 82.5968 55.9993 83.3708 56.956C84.4817 58.3312 85.2176 60.1597 85.5921 62.2066C85.8074 63.4143 85.5755 65.1381 84.9647 66.1154C84.2812 67.224 83.1701 68.208 81.5654 69.2806C81.2788 69.4722 80.9797 69.6647 80.6343 69.8813C80.499 69.9661 80.3608 70.052 80.1892 70.1582C80.1286 70.1957 79.8432 70.372 79.7661 70.4197C79.1251 70.8159 78.5847 71.176 77.5225 71.9034C77.4063 71.983 77.4063 71.983 77.29 72.0627C75.6776 73.1665 74.8274 73.7129 73.7696 74.2816C72.0813 75.1437 70.4838 76.173 69.0012 77.3542C68.4779 77.7712 67.7188 77.3092 67.8487 76.6528L71.5309 58.0368Z" fill="#FBD2AE"/>
<path d="M76.1589 100.585C80.8817 99.765 89.6857 97.0545 91.379 95.3002C93.0341 93.6072 93.6484 91.288 93.6238 88.139C93.6167 87.2378 93.5691 86.4316 93.4569 85.0166L93.4212 84.5671C93.1497 81.5898 92.586 78.6552 91.7376 75.7975C90.7532 72.3408 89.2207 71.5522 84.9889 71.7819C80.6103 72.0705 76.2667 72.6756 71.9841 73.593C71.6124 73.6726 71.367 74.028 71.4243 74.4039L75.3257 99.9856C75.3864 100.384 75.7623 100.654 76.1589 100.585Z" fill="#FBD2AE"/>
<path d="M91.7491 83.502C90.6606 83.6458 89.4008 83.7976 87.8956 83.968C86.7793 84.0944 85.6452 84.2183 83.9116 84.4046C79.071 84.925 78.0964 85.0323 76.2901 85.2543C75.8962 85.3027 75.6162 85.6612 75.6646 86.0551C75.713 86.4489 76.0716 86.7289 76.4654 86.6805C78.261 86.4598 79.2344 86.3527 84.0651 85.8334C85.8013 85.6467 86.9376 85.5226 88.0572 85.3958C89.5706 85.2245 90.8388 85.0718 91.9373 84.9266C92.3307 84.8746 92.6075 84.5136 92.5555 84.1202C92.5035 83.7268 92.1425 83.45 91.7491 83.502Z" fill="#FCB7A0"/>
<path d="M66.271 91.7965C63.6215 88.4942 60.9721 86.0757 58.2029 84.6431C54.3195 82.63 49.8551 81.3333 45.7461 81.1837C40.8441 81.0052 36.6569 82.4336 33.668 85.6587C33.0144 86.3654 32.4931 87.2541 32.0014 88.4471L29.9206 81.6789C29.7697 81.1881 29.1675 81.0094 28.7734 81.3384C27.3974 82.4871 25.4078 85.2788 22.9364 89.3168C21.2734 92.0339 19.6887 94.8178 18.0887 97.7357C17.6786 98.485 17.2571 99.3232 16.8232 100.249C15.7555 102.526 14.6339 105.279 13.3977 108.592C12.8107 110.164 12.2202 111.801 11.5229 113.775C11.2346 114.592 10.1543 117.673 9.9081 118.369C6.45383 128.131 4.37769 138.831 2.07426 155.823C1.62239 159.161 1.25501 164.118 0.961885 170.273C0.764348 174.42 0.612149 187.844 0.499544 192.286C0.460137 193.841 0.428491 195.284 0.403895 196.58C0.395285 197.033 0.38817 197.436 0.382462 197.783C0.380463 197.905 0.379344 197.976 0.37741 198.101C0.376046 198.191 0.376046 198.191 0.375057 198.21C0.370088 198.611 0.692924 198.939 1.09343 198.939L58.1881 199C58.5852 199 58.9074 198.679 58.9074 198.282C58.9074 182.993 59.7208 154.111 61.162 147.358C62.3185 141.953 64.4314 135.322 66.8165 129.38C67.9357 126.585 69.2688 123.561 71.064 119.677C71.6031 119.594 72.1385 119.488 72.6689 119.361C75.2273 118.73 75.9793 118.532 77.2957 118.106C82.3973 116.455 85.4599 114.111 86.0051 110.311C86.4491 107.222 85.0346 103.057 82.8346 100.947C81.2572 99.435 79.0664 99.0404 76.1559 99.3848C75.2878 99.4875 74.4422 99.639 73.2178 99.8936C73.0332 99.932 72.4206 100.061 72.3341 100.079C72.2113 100.105 72.0996 100.128 71.9956 100.149C69.7612 96.5314 68.1608 94.1519 66.271 91.7965Z" fill="#FBD2AE"/>
<path d="M67.1495 106.402C62.764 106.859 60.2337 110.445 61.5091 114.516C61.5193 114.549 61.9781 116.134 62.1528 116.661C62.6278 118.096 63.1275 119.079 63.8212 119.667C65.7278 121.284 67.5929 121.595 70.2053 120.951C70.5906 120.856 70.826 120.467 70.7311 120.082C70.6362 119.697 70.2469 119.461 69.8616 119.556C67.668 120.096 66.2756 119.864 64.7503 118.571C64.3194 118.206 63.9131 117.406 63.5169 116.21C63.3527 115.713 62.8991 114.147 62.8809 114.088C61.8835 110.904 63.7944 108.197 67.2987 107.831C67.6934 107.79 67.98 107.436 67.9388 107.042C67.8975 106.647 67.5442 106.36 67.1495 106.402Z" fill="#FCB7A0"/>
<path d="M63.607 108.499L63.6046 108.499C59.8954 109.15 49.0678 109.695 44.2491 109.588C43.7563 109.577 43.2594 109.571 42.5494 109.567C42.4285 109.566 42.3316 109.566 42.1135 109.565C37.397 109.539 35.3977 109.371 33.2007 108.55C30.2225 107.438 28.3028 105.221 27.4732 101.555C26.5846 97.6279 25.9497 93.3972 25.377 88.0436C25.1634 86.0471 25.0523 84.8885 24.6653 80.7273C24.5861 79.8763 24.5299 79.2767 24.4733 78.6815C23.9682 73.3537 23.5122 67.4709 22.8589 58.2257C22.9208 59.1017 22.2423 49.4396 22.0612 46.9245C21.809 43.4221 21.5927 40.5589 21.3829 37.9795C20.8614 31.482 20.7844 24.9836 21.6529 22.3782C22.7101 19.1255 25.5533 16.7777 28.9295 16.3574C37.5117 15.0701 48.2973 14.0966 54.0187 14.2157C54.5306 14.2264 54.983 14.231 55.9658 14.2376C58.863 14.2568 60.2126 14.2914 61.9187 14.4312C67.3225 14.874 71.0959 16.2599 73.2655 19.2393C74.4483 20.8667 75.1478 23.2167 75.5848 26.3845C75.6943 27.1777 75.7856 28.0065 75.8742 28.9679C75.9082 29.3365 75.9403 29.7072 75.9804 30.1877C75.973 30.099 76.0541 31.0765 76.0753 31.3257C76.1018 31.6371 76.125 31.8964 76.148 32.1373C76.1655 32.3285 76.1655 32.3285 76.183 32.5198C76.9048 40.4072 76.926 40.6347 77.2242 43.5813C77.4273 45.5885 77.6277 47.445 77.8345 49.2186C79.7126 65.107 80.8384 78.5095 81.2591 91.5086C81.4511 97.3751 80.5758 101.364 77.5337 103.977C76.0903 105.209 73.7398 106.198 70.6562 107.03C69.3866 107.373 68.0464 107.674 66.5924 107.957C66.0451 108.064 65.5068 108.163 64.8985 108.271C64.6487 108.316 63.7831 108.467 63.607 108.499Z" fill="#1A4E66"/>
<path d="M62.0111 105.5C57.7519 105.972 53.4675 106.181 49.1825 106.125C42.928 105.988 37.6651 106.822 35.9659 99.3169C34.4535 92.635 33.8966 83.9808 33.2464 77.1336C32.1902 65.997 31.3424 50.5495 30.4335 39.3555C30.1892 36.3378 29.4815 25.9664 30.6491 23.247C31.8166 20.5275 34.6798 19.6833 36.7383 19.2953C41.6851 18.3397 47.7132 17.596 53.3713 17.7146C58.5192 17.8224 66.9399 17.2871 70.3743 22.0255C72.3933 24.8061 72.5621 31.5958 72.889 34.8829C73.3776 39.9949 73.8338 45.265 74.4481 50.4525C75.957 63.2201 77.1425 77.7551 77.5628 90.6879C77.6813 94.2803 77.455 98.9002 74.3978 101.523C71.5419 103.962 64.4791 105.198 62.0111 105.5Z" fill="white"/>
<path d="M27.8821 18.5292C26.1227 19.7059 25.5573 22.7046 25.6372 27.4383C25.6574 28.6394 25.7149 29.8266 25.8199 31.4761C25.8348 31.7099 25.8982 32.6818 25.9135 32.9236C25.9461 33.4394 25.9679 33.8221 25.9831 34.1574C26.1249 37.2268 26.3392 40.7874 26.6665 45.6992C26.7126 46.3904 26.7612 47.114 26.8169 47.9369C26.8536 48.4792 27.0726 51.7019 27.1336 52.6072C27.2512 54.3511 27.3415 55.7183 27.4208 56.968C28.1601 68.7269 29.2778 81.2709 30.7753 95.1692C31.1856 99.0094 32.0437 102.606 33.3406 105.121C33.5225 105.474 33.9558 105.612 34.3085 105.43C34.6612 105.248 34.7996 104.815 34.6177 104.462C33.418 102.136 32.5972 98.6956 32.204 95.0159C30.7086 81.1367 29.5928 68.6134 28.8549 56.8774C28.7754 55.625 28.685 54.2561 28.5673 52.5105C28.5063 51.6048 28.2873 48.3818 28.2506 47.84C28.195 47.0174 28.1464 46.2943 28.1003 45.6036C27.7736 40.7009 27.5597 37.1485 27.4186 34.0917C27.403 33.7468 27.3807 33.3565 27.3476 32.8329C27.3322 32.5893 27.2688 31.617 27.254 31.3848C27.1502 29.7558 27.0938 28.5879 27.0739 27.414C27.0029 23.2068 27.5123 20.5052 28.681 19.7236C29.0108 19.503 29.0994 19.0568 28.8788 18.727C28.6582 18.3971 28.212 18.3086 27.8821 18.5292Z" fill="#0D323F"/>
<path d="M18.7017 120.562C18.1575 120.55 17.8245 119.96 18.0948 119.487C19.0271 117.857 20.0878 116.133 21.4025 114.087C21.9424 113.248 22.5023 112.388 23.247 111.254C23.4849 110.891 24.3569 109.565 24.2876 109.67C24.7041 109.036 25.0147 108.563 25.316 108.101C26.085 106.923 26.7134 105.946 27.2923 105.024C31.7953 97.8511 36.4836 92.1296 41.5378 88.1884C44.4325 85.9316 47.8654 86.513 50.0382 89.5864C51.1766 91.1936 51.2293 93.0152 50.4732 95.1838C50.1761 96.0361 49.8108 96.8281 49.163 98.0992C48.3266 99.7402 48.3291 99.7353 48.0907 100.278C47.2245 102.249 46.668 105.644 46.545 108.807C46.4937 110.158 46.6511 111.699 46.9943 113.452C47.2605 114.812 47.6197 116.226 48.124 117.979C48.2294 118.345 48.3385 118.718 48.4765 119.184C48.5128 119.306 48.7492 120.103 48.8153 120.327C48.9532 120.794 48.5963 121.26 48.1095 121.249L18.7017 120.562Z" fill="#FBD2AE"/>
<path d="M24.799 43.3372C24.6617 41.3255 24.5586 39.3298 24.4912 37.3692C24.4776 36.9727 24.1451 36.6622 23.7485 36.6758C23.3519 36.6895 23.0415 37.022 23.0551 37.4186C23.123 39.3955 23.227 41.4073 23.3653 43.435C23.3923 43.8309 23.7351 44.1299 24.131 44.1029C24.5269 44.0759 24.826 43.7331 24.799 43.3372Z" fill="#0D323F"/>
<path d="M25.5268 53.2315C25.3489 51.309 25.2103 49.2676 25.1051 47.0806C25.086 46.6842 24.7493 46.3784 24.3529 46.3975C23.9566 46.4165 23.6507 46.7533 23.6698 47.1496C23.776 49.3568 23.916 51.4191 24.0959 53.3639C24.1325 53.759 24.4824 54.0497 24.8776 54.0131C25.2727 53.9766 25.5633 53.6266 25.5268 53.2315Z" fill="#0D323F"/>
<path d="M46.3871 110.295C46.6221 112.758 47.2034 114.691 48.3669 117.484C48.431 117.638 48.496 117.793 48.584 118.002C48.6379 118.129 48.6379 118.129 48.6914 118.256C48.7447 118.383 48.7663 118.434 48.7976 118.509C48.9669 118.912 49.0895 119.208 49.2051 119.497C49.3527 119.865 49.7709 120.044 50.1393 119.897C50.5076 119.749 50.6866 119.331 50.5391 118.963C50.4199 118.665 50.2945 118.362 50.1224 117.952C50.0909 117.877 50.0691 117.825 50.0156 117.698C49.962 117.571 49.962 117.571 49.9083 117.444C49.821 117.236 49.7566 117.083 49.6934 116.931C48.5803 114.26 48.0362 112.45 47.8176 110.159C47.7799 109.764 47.4291 109.474 47.0341 109.512C46.6391 109.55 46.3494 109.9 46.3871 110.295Z" fill="#FCB7A0"/>
<path d="M18.728 118.43C19.6408 116.834 20.683 115.139 21.9761 113.128C22.5146 112.29 23.0739 111.432 23.8187 110.298C24.0568 109.935 24.9263 108.613 24.8633 108.709C25.282 108.072 25.5948 107.595 25.8983 107.13C26.6745 105.941 27.3094 104.954 27.8952 104.021C28.1061 103.685 28.0047 103.241 27.6686 103.03C27.3325 102.819 26.8891 102.921 26.6781 103.257C26.0975 104.182 25.467 105.162 24.695 106.344C24.3925 106.808 24.0805 107.283 23.6625 107.919C23.7258 107.823 22.8559 109.146 22.6175 109.509C21.8704 110.647 21.3088 111.508 20.7673 112.351C19.4619 114.381 18.4075 116.096 17.4807 117.716C17.2837 118.061 17.4032 118.5 17.7476 118.697C18.0921 118.894 18.531 118.774 18.728 118.43Z" fill="#FCB7A0"/>
<path d="M48.5699 139.426C49.3056 139.595 50.0264 139.823 50.725 140.109C51.0922 140.26 51.5118 140.084 51.6621 139.717C51.8125 139.349 51.6366 138.93 51.2694 138.78C50.4984 138.464 49.7029 138.212 48.8909 138.026C48.5041 137.937 48.1187 138.179 48.03 138.565C47.9414 138.952 48.1831 139.338 48.5699 139.426Z" fill="#FCB7A0"/>
<path d="M57.4876 36.4768C49.3286 35.117 42.5196 37.4174 39.918 44.0023C37.8315 49.2925 38.4253 55.6193 41.6236 59.9773C43.2158 62.1518 46.397 63.9219 49.9184 64.6321C53.7289 65.4005 57.4665 64.863 60.2427 62.906C71.6931 57.763 69.6725 38.4955 57.4876 36.4768Z" fill="#1FAD66"/>
<path d="M49.3162 53.6558C49.2718 53.6125 49.0396 53.3855 48.9736 53.3211C48.8407 53.1916 48.7328 53.0868 48.6287 52.9865C48.0591 52.4379 47.6193 52.0415 47.176 51.6896C46.8652 51.4428 46.4132 51.4948 46.1665 51.8056C45.9198 52.1164 45.9718 52.5683 46.2825 52.815C46.6831 53.133 47.0924 53.502 47.6319 54.0215C47.7335 54.1194 47.8393 54.2221 47.9701 54.3497C48.0355 54.4135 48.2676 54.6404 48.3125 54.6842C49.809 56.1448 50.643 56.8472 51.7164 57.417C52.0137 57.5748 52.3808 57.505 52.5995 57.2491C54.1998 55.3762 55.2194 53.6352 57.2403 49.6742L57.2818 49.5928C58.5868 47.0349 59.1999 45.9034 60.04 44.5975C60.2547 44.2638 60.1582 43.8192 59.8244 43.6046C59.4907 43.3899 59.0462 43.4864 58.8315 43.8201C57.9568 45.1798 57.3287 46.3391 56.0018 48.9398L55.9603 49.0212C54.1626 52.5445 53.1878 54.2487 51.8891 55.856C51.1704 55.3984 50.4548 54.7672 49.3162 53.6558Z" fill="white"/>
<path d="M74.4566 9.17936L78.1604 1.27958C78.371 0.830477 78.1776 0.295714 77.7285 0.0851525C77.2794 -0.125409 76.7446 0.0679668 76.5341 0.517069L72.8303 8.41685C72.6197 8.86595 72.8131 9.40072 73.2622 9.61128C73.7113 9.82184 74.2461 9.62846 74.4566 9.17936Z" fill="#CCC9C6"/>
<path d="M89.0501 5.39498L81.1431 11.0531C80.7397 11.3417 80.6467 11.9027 80.9354 12.3061C81.224 12.7095 81.785 12.8025 82.1884 12.5138L90.0954 6.85573C90.4987 6.56708 90.5917 6.00608 90.3031 5.60271C90.0144 5.19933 89.4535 5.10633 89.0501 5.39498Z" fill="#CCC9C6"/>
<path d="M84.6002 21.8781L91.803 21.7379C92.2989 21.7283 92.6931 21.3185 92.6835 20.8225C92.6738 20.3266 92.264 19.9324 91.7681 19.9421L84.5652 20.0822C84.0693 20.0918 83.6751 20.5017 83.6847 20.9976C83.6944 21.4935 84.1042 21.8877 84.6002 21.8781Z" fill="#CCC9C6"/>
</svg>
