<svg width="21" height="21" viewBox="0 0 21 21" fill="none" xmlns="http://www.w3.org/2000/svg">
<path d="M18.9287 5.81603C18.6538 5.17954 18.2575 4.60277 17.7618 4.11798C17.2658 3.63176 16.681 3.24536 16.0392 2.9798C15.3736 2.70334 14.6598 2.56183 13.9392 2.56349C12.9281 2.56349 11.9417 2.84035 11.0845 3.3633C10.8794 3.48839 10.6846 3.6258 10.5 3.7755C10.3154 3.6258 10.1206 3.48839 9.91553 3.3633C9.0583 2.84035 8.07188 2.56349 7.06084 2.56349C6.33281 2.56349 5.62734 2.70294 4.96084 2.9798C4.31689 3.2464 3.73652 3.6299 3.23818 4.11798C2.74189 4.60222 2.34543 5.17913 2.07129 5.81603C1.78623 6.47843 1.64062 7.18185 1.64062 7.90578C1.64062 8.58869 1.78008 9.30031 2.05693 10.0242C2.28867 10.6292 2.6209 11.2568 3.04541 11.8904C3.71807 12.8933 4.64297 13.9392 5.79141 14.9994C7.69453 16.7569 9.5792 17.971 9.65918 18.0202L10.1452 18.3319C10.3605 18.4694 10.6374 18.4694 10.8527 18.3319L11.3388 18.0202C11.4188 17.969 13.3014 16.7569 15.2065 14.9994C16.355 13.9392 17.2799 12.8933 17.9525 11.8904C18.3771 11.2568 18.7113 10.6292 18.941 10.0242C19.2179 9.30031 19.3573 8.58869 19.3573 7.90578C19.3594 7.18185 19.2138 6.47843 18.9287 5.81603Z" fill="white"/>
</svg>
