<svg width="22" height="22" viewBox="0 0 22 22" fill="none" xmlns="http://www.w3.org/2000/svg">
<path d="M2.75041 12.8334H4.58374V19.2501C4.58374 19.4932 4.68032 19.7263 4.85223 19.8982C5.02414 20.0701 5.2573 20.1667 5.50041 20.1667H16.5004C16.7435 20.1667 16.9767 20.0701 17.1486 19.8982C17.3205 19.7263 17.4171 19.4932 17.4171 19.2501V12.8334H19.2504C19.4276 12.8335 19.601 12.7823 19.7495 12.6858C19.8981 12.5893 20.0154 12.4517 20.0873 12.2898C20.1597 12.128 20.1835 11.9486 20.1559 11.7735C20.1282 11.5984 20.0502 11.4351 19.9315 11.3035L11.6815 2.1368C11.3341 1.74997 10.6667 1.74997 10.3193 2.1368L2.06933 11.3035C1.95079 11.4352 1.87297 11.5984 1.84526 11.7734C1.81756 11.9484 1.84116 12.1277 1.91322 12.2895C1.98528 12.4514 2.1027 12.5889 2.25128 12.6854C2.39986 12.7819 2.57323 12.8333 2.75041 12.8334ZM7.93233 10.671C8.31387 10.2943 8.82845 10.0831 9.36462 10.0831C9.90078 10.0831 10.4154 10.2943 10.7969 10.671L11.0022 10.8726L11.2067 10.671C11.5884 10.2942 12.1031 10.083 12.6394 10.083C13.1757 10.083 13.6905 10.2942 14.0722 10.671C14.2615 10.8531 14.4122 11.0717 14.5151 11.3134C14.618 11.5552 14.671 11.8153 14.671 12.0781C14.671 12.3408 14.618 12.6009 14.5151 12.8427C14.4122 13.0844 14.2615 13.303 14.0722 13.4851L11.0022 16.5001L7.93233 13.4851C7.74296 13.303 7.59232 13.0844 7.48942 12.8427C7.38652 12.6009 7.33348 12.3408 7.33348 12.0781C7.33348 11.8153 7.38652 11.5552 7.48942 11.3134C7.59232 11.0717 7.74296 10.8531 7.93233 10.671Z" fill="white"/>
</svg>
