<svg width="111" height="95" viewBox="0 0 111 95" fill="none" xmlns="http://www.w3.org/2000/svg">
<path d="M51.0111 34.603L22.8551 61.0714C22.0386 61.8391 21.5771 62.9119 21.5771 64.0373V87.4731C21.5771 91.2066 24.5743 94.2296 28.2713 94.2296H40.9902V79.4768C40.9902 71.3422 47.5221 64.7477 55.5753 64.7477C63.6489 64.7477 70.1858 71.3612 70.1757 79.5101C70.1655 86.8723 70.1655 94.2296 70.1655 94.2296H82.8844C86.5814 94.2296 89.5786 91.2018 89.5786 87.4731V64.0373C89.5786 62.9119 89.1171 61.8343 88.3006 61.0714L60.1294 34.603C57.5582 32.1903 53.5772 32.1903 51.0111 34.603Z" fill="#FF7B28"/>
<path d="M41.1369 31.3272C48.2843 30.676 53.2605 23.3992 52.2516 15.0741C51.2428 6.74891 44.6308 0.527955 37.4834 1.17916C30.3361 1.83037 25.3599 9.10714 26.3687 17.4323C27.3776 25.7574 33.9896 31.9784 41.1369 31.3272Z" fill="#00A59E"/>
<path d="M84.8679 17.4329C85.8768 9.10774 80.9005 1.83097 73.7532 1.17977C66.6058 0.528561 59.9938 6.74951 58.985 15.0747C57.9761 23.3998 62.9523 30.6766 70.0997 31.3278C77.247 31.979 83.859 25.758 84.8679 17.4329Z" fill="#00A59E"/>
<path d="M21.2267 50.7684C27.2663 48.8611 29.8587 41.8303 27.0169 35.0646C24.1751 28.2989 16.9753 24.3603 10.9357 26.2676C4.89609 28.1748 2.30371 35.2056 5.14548 41.9714C7.98726 48.7371 15.1871 52.6756 21.2267 50.7684Z" fill="#00A59E"/>
<path d="M105.622 41.968C108.462 35.2016 105.868 28.1711 99.8273 26.265C93.787 24.3588 86.5881 28.2989 83.7479 35.0653C80.9078 41.8317 83.5021 48.8622 89.5423 50.7684C95.5826 52.6745 102.782 48.7345 105.622 41.968Z" fill="#00A59E"/>
</svg>
