<svg width="21" height="21" viewBox="0 0 21 21" fill="none" xmlns="http://www.w3.org/2000/svg">
<path d="M18.1213 16.8788L15.1463 13.9125C16.1061 12.6897 16.6269 11.1796 16.625 9.625C16.625 8.24053 16.2145 6.88716 15.4453 5.73601C14.6761 4.58487 13.5829 3.68766 12.3038 3.15785C11.0247 2.62803 9.61724 2.48941 8.25937 2.75951C6.9015 3.0296 5.65422 3.69629 4.67526 4.67526C3.69629 5.65422 3.0296 6.9015 2.75951 8.25937C2.48941 9.61724 2.62803 11.0247 3.15785 12.3038C3.68766 13.5829 4.58487 14.6761 5.73601 15.4453C6.88716 16.2145 8.24053 16.625 9.625 16.625C11.1796 16.6269 12.6897 16.1061 13.9125 15.1463L16.8788 18.1213C16.9601 18.2033 17.0569 18.2684 17.1635 18.3128C17.2701 18.3572 17.3845 18.3801 17.5 18.3801C17.6155 18.3801 17.7299 18.3572 17.8365 18.3128C17.9431 18.2684 18.0399 18.2033 18.1213 18.1213C18.2033 18.0399 18.2684 17.9431 18.3128 17.8365C18.3572 17.7299 18.3801 17.6155 18.3801 17.5C18.3801 17.3845 18.3572 17.2701 18.3128 17.1635C18.2684 17.0569 18.2033 16.9601 18.1213 16.8788ZM4.375 9.625C4.375 8.58665 4.68291 7.57162 5.25979 6.70826C5.83667 5.8449 6.6566 5.172 7.61592 4.77464C8.57523 4.37728 9.63083 4.27331 10.6492 4.47588C11.6676 4.67845 12.6031 5.17847 13.3373 5.91269C14.0715 6.64692 14.5716 7.58238 14.7741 8.60078C14.9767 9.61918 14.8727 10.6748 14.4754 11.6341C14.078 12.5934 13.4051 13.4133 12.5417 13.9902C11.6784 14.5671 10.6634 14.875 9.625 14.875C8.23262 14.875 6.89726 14.3219 5.91269 13.3373C4.92813 12.3527 4.375 11.0174 4.375 9.625Z" fill="#7D7D7D"/>
</svg>
