<svg width="135" height="90" viewBox="0 0 135 90" fill="none" xmlns="http://www.w3.org/2000/svg">
<path fill-rule="evenodd" clip-rule="evenodd" d="M88.5052 0.166016L135 38.3579H42.0107L46.541 0.166016H88.5052Z" fill="#A39FFF"/>
<path d="M92.9889 38.3579H0V89.8339H92.9889V38.3579Z" fill="#E8E7FF"/>
<path d="M134.834 38.3579H92.9893V89.8339H134.834V38.3579Z" fill="#CECCFF"/>
<path fill-rule="evenodd" clip-rule="evenodd" d="M46.4942 55.4612C51.6298 55.4612 55.7931 59.6244 55.7931 64.7601V89.8339H37.1953V64.7601C37.1953 59.6244 41.3586 55.4612 46.4942 55.4612Z" fill="#7364FF"/>
<path d="M29.5575 55.4612H7.63867V82.1955H29.5575V55.4612Z" fill="#7364FF"/>
<path d="M85.3505 55.4612H63.4316V82.1955H85.3505V55.4612Z" fill="#7364FF"/>
<path d="M124.871 55.4612H102.952V82.1955H124.871V55.4612Z" fill="#5628D2"/>
<path fill-rule="evenodd" clip-rule="evenodd" d="M46.4945 0.166016L92.9889 38.3579H0L46.4945 0.166016Z" fill="#E8E7FF"/>
<path d="M46.8269 40.6826C51.0454 40.6826 54.4652 37.2628 54.4652 33.0443C54.4652 28.8257 51.0454 25.4059 46.8269 25.4059C42.6083 25.4059 39.1885 28.8257 39.1885 33.0443C39.1885 37.2628 42.6083 40.6826 46.8269 40.6826Z" fill="#7364FF"/>
</svg>
