<svg width="68" height="68" viewBox="0 0 68 68" fill="none" xmlns="http://www.w3.org/2000/svg">
<path d="M56.8416 52.9763C59.8934 49.3045 62.0159 44.9517 63.0297 40.2862C64.0434 35.6206 63.9185 30.7795 62.6656 26.1724C61.4126 21.5653 59.0685 17.3278 55.8315 13.8182C52.5945 10.3087 48.5598 7.63039 44.0688 6.00993C39.5778 4.38947 34.7626 3.8745 30.0304 4.5086C25.2983 5.1427 20.7885 6.90721 16.8825 9.65286C12.9766 12.3985 9.78934 16.0445 7.59049 20.2825C5.39163 24.5204 4.24583 29.2256 4.25001 34C4.25162 40.9407 6.69747 47.6591 11.1584 52.9763L11.1159 53.0124C11.2646 53.1909 11.4346 53.3439 11.5876 53.5203C11.7789 53.7392 11.985 53.9453 12.1826 54.1578C12.7776 54.8038 13.3896 55.4243 14.0314 56.0065C14.2269 56.185 14.4288 56.3508 14.6264 56.5208C15.3064 57.1073 16.0055 57.664 16.7301 58.1825C16.8236 58.2463 16.9086 58.3292 17.0021 58.395V58.3695C21.9791 61.8719 27.9164 63.7516 34.0021 63.7516C40.0879 63.7516 46.0252 61.8719 51.0021 58.3695V58.395C51.0956 58.3292 51.1785 58.2463 51.2741 58.1825C51.9966 57.6619 52.6979 57.1073 53.3779 56.5208C53.5755 56.3508 53.7774 56.1829 53.9729 56.0065C54.6146 55.4222 55.2266 54.8038 55.8216 54.1578C56.0193 53.9453 56.2233 53.7392 56.4166 53.5203C56.5675 53.3439 56.7396 53.1909 56.8884 53.0103L56.8416 52.9763ZM34 17C35.8913 17 37.7401 17.5609 39.3127 18.6116C40.8852 19.6623 42.1108 21.1558 42.8346 22.9031C43.5584 24.6504 43.7477 26.5731 43.3788 28.4281C43.0098 30.283 42.0991 31.9869 40.7617 33.3242C39.4244 34.6616 37.7205 35.5723 35.8656 35.9413C34.0106 36.3103 32.0879 36.1209 30.3406 35.3971C28.5933 34.6734 27.0998 33.4477 26.0491 31.8752C24.9983 30.3026 24.4375 28.4538 24.4375 26.5625C24.4375 24.0264 25.445 21.5941 27.2383 19.8008C29.0316 18.0075 31.4639 17 34 17ZM17.0149 52.9763C17.0517 50.1861 18.1856 47.5226 20.1713 45.562C22.1569 43.6015 24.8346 42.5015 27.625 42.5H40.375C43.1654 42.5015 45.8431 43.6015 47.8288 45.562C49.8144 47.5226 50.9483 50.1861 50.9851 52.9763C46.3247 57.176 40.2736 59.5002 34 59.5002C27.7265 59.5002 21.6753 57.176 17.0149 52.9763Z" fill="white"/>
</svg>
