<svg width="50" height="50" viewBox="0 0 50 50" fill="none" xmlns="http://www.w3.org/2000/svg">
<path d="M41.7953 38.9532C44.0393 36.2533 45.5999 33.0528 46.3453 29.6222C47.0907 26.1916 46.9989 22.632 46.0776 19.2444C45.1564 15.8569 43.4327 12.741 41.0526 10.1605C38.6724 7.57993 35.7058 5.6106 32.4035 4.41909C29.1013 3.22757 25.5607 2.84892 22.0812 3.31517C18.6017 3.78142 15.2857 5.07885 12.4136 7.09771C9.54159 9.11657 7.19804 11.7975 5.58124 14.9136C3.96443 18.0297 3.12193 21.4894 3.12501 25C3.12619 30.1035 4.92461 35.0434 8.2047 38.9532L8.17345 38.9797C8.28282 39.111 8.40782 39.2235 8.52032 39.3532C8.66095 39.5141 8.81251 39.6657 8.95782 39.8219C9.39532 40.2969 9.84532 40.7532 10.3172 41.1813C10.4609 41.3125 10.6094 41.4344 10.7547 41.5594C11.2547 41.9907 11.7688 42.4 12.3016 42.7813C12.3703 42.8282 12.4328 42.8891 12.5016 42.9375V42.9188C16.1611 45.4941 20.5267 46.8762 25.0016 46.8762C29.4764 46.8762 33.842 45.4941 37.5016 42.9188V42.9375C37.5703 42.8891 37.6313 42.8282 37.7016 42.7813C38.2328 42.3985 38.7484 41.9907 39.2484 41.5594C39.3938 41.4344 39.5422 41.311 39.6859 41.1813C40.1578 40.7516 40.6078 40.2969 41.0453 39.8219C41.1906 39.6657 41.3406 39.5141 41.4828 39.3532C41.5938 39.2235 41.7203 39.111 41.8297 38.9782L41.7953 38.9532ZM25 12.5C26.3907 12.5 27.7501 12.9124 28.9064 13.685C30.0626 14.4576 30.9639 15.5558 31.496 16.8406C32.0282 18.1253 32.1675 19.5391 31.8962 20.903C31.6249 22.267 30.9552 23.5198 29.9719 24.5031C28.9885 25.4865 27.7357 26.1561 26.3717 26.4274C25.0078 26.6987 23.5941 26.5595 22.3093 26.0273C21.0245 25.4951 19.9263 24.5939 19.1537 23.4376C18.3811 22.2814 17.9688 20.9219 17.9688 19.5313C17.9688 17.6665 18.7095 15.8781 20.0282 14.5595C21.3468 13.2408 23.1352 12.5 25 12.5ZM12.5109 38.9532C12.5381 36.9016 13.3718 34.9431 14.8318 33.5015C16.2918 32.0599 18.2607 31.2511 20.3125 31.25H29.6875C31.7393 31.2511 33.7082 32.0599 35.1682 33.5015C36.6282 34.9431 37.462 36.9016 37.4891 38.9532C34.0623 42.0412 29.6129 43.7502 25 43.7502C20.3871 43.7502 15.9378 42.0412 12.5109 38.9532Z" fill="#FF7B28"/>
</svg>
