<svg width="111" height="95" viewBox="0 0 111 95" fill="none" xmlns="http://www.w3.org/2000/svg">
<path d="M51.0106 34.603L22.8546 61.0714C22.0382 61.8391 21.5767 62.9119 21.5767 64.0372V87.473C21.5767 91.2065 24.5738 94.2296 28.2708 94.2296H40.9897V79.4767C40.9897 71.3421 47.5216 64.7477 55.5748 64.7477C63.6484 64.7477 70.1853 71.3612 70.1752 79.5101C70.165 86.8722 70.165 94.2296 70.165 94.2296H82.8839C86.5809 94.2296 89.5781 91.2018 89.5781 87.473V64.0372C89.5781 62.9119 89.1166 61.8343 88.3001 61.0714L60.1289 34.603C57.5577 32.1902 53.5767 32.1902 51.0106 34.603Z" fill="#FF7B28"/>
<path d="M41.1369 31.3271C48.2842 30.6759 53.2604 23.3992 52.2516 15.074C51.2427 6.74885 44.6307 0.527894 37.4834 1.1791C30.336 1.83031 25.3598 9.10708 26.3687 17.4322C27.3775 25.7574 33.9895 31.9783 41.1369 31.3271Z" fill="#00A59E"/>
<path d="M84.8681 17.4329C85.8769 9.10779 80.9007 1.83102 73.7533 1.17981C66.606 0.528606 59.994 6.74956 58.9851 15.0747C57.9763 23.3999 62.9525 30.6766 70.0998 31.3278C77.2472 31.979 83.8592 25.7581 84.8681 17.4329Z" fill="#00A59E"/>
<path d="M21.2267 50.7684C27.2663 48.8611 29.8587 41.8303 27.0169 35.0646C24.1751 28.2989 16.9753 24.3603 10.9357 26.2676C4.89609 28.1748 2.30371 35.2057 5.14548 41.9714C7.98726 48.7371 15.1871 52.6756 21.2267 50.7684Z" fill="#00A59E"/>
<path d="M105.621 41.968C108.462 35.2016 105.867 28.1711 99.8271 26.2649C93.7868 24.3588 86.5878 28.2988 83.7477 35.0653C80.9076 41.8317 83.5018 48.8622 89.5421 50.7683C95.5824 52.6745 102.781 48.7344 105.621 41.968Z" fill="#00A59E"/>
</svg>
